%TF.GenerationSoftware,KiCad,Pcbnew,5.1.9+dfsg1-1+deb11u1*%
%TF.CreationDate,2024-08-22T01:22:47-07:00*%
%TF.ProjectId,micro7Decoder,6d696372-6f37-4446-9563-6f6465722e6b,rev?*%
%TF.SameCoordinates,Original*%
%TF.FileFunction,Soldermask,Bot*%
%TF.FilePolarity,Negative*%
%FSLAX46Y46*%
G04 Gerber Fmt 4.6, Leading zero omitted, Abs format (unit mm)*
G04 Created by KiCad (PCBNEW 5.1.9+dfsg1-1+deb11u1) date 2024-08-22 01:22:47*
%MOMM*%
%LPD*%
G01*
G04 APERTURE LIST*
%ADD10C,1.700000*%
%ADD11R,0.800000X0.900000*%
%ADD12R,0.900000X0.800000*%
%ADD13O,1.700000X1.700000*%
%ADD14R,1.700000X1.700000*%
%ADD15R,1.524000X2.524000*%
%ADD16O,1.524000X2.524000*%
G04 APERTURE END LIST*
D10*
%TO.C,J4*%
X146050000Y-78740000D03*
%TD*%
D11*
%TO.C,D4*%
X146878000Y-73204000D03*
X147828000Y-71204000D03*
X145928000Y-71204000D03*
%TD*%
D12*
%TO.C,D1*%
X145574000Y-76139000D03*
X147574000Y-77089000D03*
X147574000Y-75189000D03*
%TD*%
%TO.C,D5*%
X139192000Y-71120000D03*
X141192000Y-72070000D03*
X141192000Y-70170000D03*
%TD*%
D11*
%TO.C,D3*%
X140401000Y-75660000D03*
X141351000Y-73660000D03*
X139451000Y-73660000D03*
%TD*%
%TO.C,D2*%
X149926000Y-75311000D03*
X150876000Y-73311000D03*
X148976000Y-73311000D03*
%TD*%
%TO.C,R8*%
G36*
G01*
X150945001Y-77582500D02*
X150044999Y-77582500D01*
G75*
G02*
X149795000Y-77332501I0J249999D01*
G01*
X149795000Y-76682499D01*
G75*
G02*
X150044999Y-76432500I249999J0D01*
G01*
X150945001Y-76432500D01*
G75*
G02*
X151195000Y-76682499I0J-249999D01*
G01*
X151195000Y-77332501D01*
G75*
G02*
X150945001Y-77582500I-249999J0D01*
G01*
G37*
G36*
G01*
X150945001Y-79632500D02*
X150044999Y-79632500D01*
G75*
G02*
X149795000Y-79382501I0J249999D01*
G01*
X149795000Y-78732499D01*
G75*
G02*
X150044999Y-78482500I249999J0D01*
G01*
X150945001Y-78482500D01*
G75*
G02*
X151195000Y-78732499I0J-249999D01*
G01*
X151195000Y-79382501D01*
G75*
G02*
X150945001Y-79632500I-249999J0D01*
G01*
G37*
%TD*%
D12*
%TO.C,Q3*%
X142653000Y-73533000D03*
X144653000Y-74483000D03*
X144653000Y-72583000D03*
%TD*%
%TO.C,Q2*%
X144475200Y-78333600D03*
X142475200Y-77383600D03*
X142475200Y-79283600D03*
%TD*%
%TO.C,Q1*%
X151098000Y-70993000D03*
X149098000Y-70043000D03*
X149098000Y-71943000D03*
%TD*%
D13*
%TO.C,J3*%
X140970000Y-68580000D03*
X143510000Y-68580000D03*
X146050000Y-68580000D03*
D10*
X148590000Y-68580000D03*
%TD*%
D14*
%TO.C,J2*%
X140970000Y-78740000D03*
%TD*%
D10*
%TO.C,J1*%
X148590000Y-78740000D03*
%TD*%
D15*
%TO.C,AFF1*%
X139700000Y-81280000D03*
D16*
X142240000Y-81280000D03*
X144780000Y-81280000D03*
X147320000Y-81280000D03*
X149860000Y-81280000D03*
X149860000Y-66040000D03*
X147320000Y-66040000D03*
X144780000Y-66040000D03*
X142240000Y-66040000D03*
X139700000Y-66040000D03*
%TD*%
M02*
