M48
; DRILL file {KiCad 5.1.9+dfsg1-1+deb11u1} date Thu Aug 22 01:22:34 2024
; FORMAT={-:-/ absolute / metric / decimal}
; #@! TF.CreationDate,2024-08-22T01:22:34-07:00
; #@! TF.GenerationSoftware,Kicad,Pcbnew,5.1.9+dfsg1-1+deb11u1
FMAT,2
METRIC
T1C0.400
T2C0.800
T3C1.000
%
G90
G05
T1
X139.065Y-76.01
X139.192Y-72.085
X143.764Y-74.105
X144.78Y-69.444
X145.034Y-77.216
X145.732Y-75.184
X146.355Y-72.949
X148.59Y-75.184
X150.05Y-70.993
T2
X139.7Y-66.04
X139.7Y-81.28
X142.24Y-66.04
X142.24Y-81.28
X144.78Y-66.04
X144.78Y-81.28
X147.32Y-66.04
X147.32Y-81.28
X149.86Y-66.04
X149.86Y-81.28
T3
X140.97Y-68.58
X140.97Y-78.74
X143.51Y-68.58
X146.05Y-68.58
X146.05Y-78.74
X148.59Y-68.58
X148.59Y-78.74
T0
M30
