%TF.GenerationSoftware,KiCad,Pcbnew,5.1.9+dfsg1-1+deb11u1*%
%TF.CreationDate,2024-08-22T01:22:46-07:00*%
%TF.ProjectId,micro7Decoder,6d696372-6f37-4446-9563-6f6465722e6b,rev?*%
%TF.SameCoordinates,Original*%
%TF.FileFunction,Paste,Top*%
%TF.FilePolarity,Positive*%
%FSLAX46Y46*%
G04 Gerber Fmt 4.6, Leading zero omitted, Abs format (unit mm)*
G04 Created by KiCad (PCBNEW 5.1.9+dfsg1-1+deb11u1) date 2024-08-22 01:22:46*
%MOMM*%
%LPD*%
G01*
G04 APERTURE LIST*
G04 APERTURE END LIST*
%TO.C,R7*%
G36*
G01*
X138614999Y-69275000D02*
X139515001Y-69275000D01*
G75*
G02*
X139765000Y-69524999I0J-249999D01*
G01*
X139765000Y-70175001D01*
G75*
G02*
X139515001Y-70425000I-249999J0D01*
G01*
X138614999Y-70425000D01*
G75*
G02*
X138365000Y-70175001I0J249999D01*
G01*
X138365000Y-69524999D01*
G75*
G02*
X138614999Y-69275000I249999J0D01*
G01*
G37*
G36*
G01*
X138614999Y-67225000D02*
X139515001Y-67225000D01*
G75*
G02*
X139765000Y-67474999I0J-249999D01*
G01*
X139765000Y-68125001D01*
G75*
G02*
X139515001Y-68375000I-249999J0D01*
G01*
X138614999Y-68375000D01*
G75*
G02*
X138365000Y-68125001I0J249999D01*
G01*
X138365000Y-67474999D01*
G75*
G02*
X138614999Y-67225000I249999J0D01*
G01*
G37*
%TD*%
%TO.C,R6*%
G36*
G01*
X141789999Y-71815000D02*
X142690001Y-71815000D01*
G75*
G02*
X142940000Y-72064999I0J-249999D01*
G01*
X142940000Y-72715001D01*
G75*
G02*
X142690001Y-72965000I-249999J0D01*
G01*
X141789999Y-72965000D01*
G75*
G02*
X141540000Y-72715001I0J249999D01*
G01*
X141540000Y-72064999D01*
G75*
G02*
X141789999Y-71815000I249999J0D01*
G01*
G37*
G36*
G01*
X141789999Y-69765000D02*
X142690001Y-69765000D01*
G75*
G02*
X142940000Y-70014999I0J-249999D01*
G01*
X142940000Y-70665001D01*
G75*
G02*
X142690001Y-70915000I-249999J0D01*
G01*
X141789999Y-70915000D01*
G75*
G02*
X141540000Y-70665001I0J249999D01*
G01*
X141540000Y-70014999D01*
G75*
G02*
X141789999Y-69765000I249999J0D01*
G01*
G37*
%TD*%
%TO.C,R5*%
G36*
G01*
X139515001Y-77900000D02*
X138614999Y-77900000D01*
G75*
G02*
X138365000Y-77650001I0J249999D01*
G01*
X138365000Y-76999999D01*
G75*
G02*
X138614999Y-76750000I249999J0D01*
G01*
X139515001Y-76750000D01*
G75*
G02*
X139765000Y-76999999I0J-249999D01*
G01*
X139765000Y-77650001D01*
G75*
G02*
X139515001Y-77900000I-249999J0D01*
G01*
G37*
G36*
G01*
X139515001Y-79950000D02*
X138614999Y-79950000D01*
G75*
G02*
X138365000Y-79700001I0J249999D01*
G01*
X138365000Y-79049999D01*
G75*
G02*
X138614999Y-78800000I249999J0D01*
G01*
X139515001Y-78800000D01*
G75*
G02*
X139765000Y-79049999I0J-249999D01*
G01*
X139765000Y-79700001D01*
G75*
G02*
X139515001Y-79950000I-249999J0D01*
G01*
G37*
%TD*%
%TO.C,R4*%
G36*
G01*
X143388501Y-76838500D02*
X142488499Y-76838500D01*
G75*
G02*
X142238500Y-76588501I0J249999D01*
G01*
X142238500Y-75938499D01*
G75*
G02*
X142488499Y-75688500I249999J0D01*
G01*
X143388501Y-75688500D01*
G75*
G02*
X143638500Y-75938499I0J-249999D01*
G01*
X143638500Y-76588501D01*
G75*
G02*
X143388501Y-76838500I-249999J0D01*
G01*
G37*
G36*
G01*
X143388501Y-78888500D02*
X142488499Y-78888500D01*
G75*
G02*
X142238500Y-78638501I0J249999D01*
G01*
X142238500Y-77988499D01*
G75*
G02*
X142488499Y-77738500I249999J0D01*
G01*
X143388501Y-77738500D01*
G75*
G02*
X143638500Y-77988499I0J-249999D01*
G01*
X143638500Y-78638501D01*
G75*
G02*
X143388501Y-78888500I-249999J0D01*
G01*
G37*
%TD*%
%TO.C,R3*%
G36*
G01*
X146861000Y-76257999D02*
X146861000Y-77158001D01*
G75*
G02*
X146611001Y-77408000I-249999J0D01*
G01*
X145960999Y-77408000D01*
G75*
G02*
X145711000Y-77158001I0J249999D01*
G01*
X145711000Y-76257999D01*
G75*
G02*
X145960999Y-76008000I249999J0D01*
G01*
X146611001Y-76008000D01*
G75*
G02*
X146861000Y-76257999I0J-249999D01*
G01*
G37*
G36*
G01*
X148911000Y-76257999D02*
X148911000Y-77158001D01*
G75*
G02*
X148661001Y-77408000I-249999J0D01*
G01*
X148010999Y-77408000D01*
G75*
G02*
X147761000Y-77158001I0J249999D01*
G01*
X147761000Y-76257999D01*
G75*
G02*
X148010999Y-76008000I249999J0D01*
G01*
X148661001Y-76008000D01*
G75*
G02*
X148911000Y-76257999I0J-249999D01*
G01*
G37*
%TD*%
%TO.C,R2*%
G36*
G01*
X150044999Y-69420000D02*
X150945001Y-69420000D01*
G75*
G02*
X151195000Y-69669999I0J-249999D01*
G01*
X151195000Y-70320001D01*
G75*
G02*
X150945001Y-70570000I-249999J0D01*
G01*
X150044999Y-70570000D01*
G75*
G02*
X149795000Y-70320001I0J249999D01*
G01*
X149795000Y-69669999D01*
G75*
G02*
X150044999Y-69420000I249999J0D01*
G01*
G37*
G36*
G01*
X150044999Y-67370000D02*
X150945001Y-67370000D01*
G75*
G02*
X151195000Y-67619999I0J-249999D01*
G01*
X151195000Y-68270001D01*
G75*
G02*
X150945001Y-68520000I-249999J0D01*
G01*
X150044999Y-68520000D01*
G75*
G02*
X149795000Y-68270001I0J249999D01*
G01*
X149795000Y-67619999D01*
G75*
G02*
X150044999Y-67370000I249999J0D01*
G01*
G37*
%TD*%
%TO.C,R1*%
G36*
G01*
X147377999Y-71782200D02*
X148278001Y-71782200D01*
G75*
G02*
X148528000Y-72032199I0J-249999D01*
G01*
X148528000Y-72682201D01*
G75*
G02*
X148278001Y-72932200I-249999J0D01*
G01*
X147377999Y-72932200D01*
G75*
G02*
X147128000Y-72682201I0J249999D01*
G01*
X147128000Y-72032199D01*
G75*
G02*
X147377999Y-71782200I249999J0D01*
G01*
G37*
G36*
G01*
X147377999Y-69732200D02*
X148278001Y-69732200D01*
G75*
G02*
X148528000Y-69982199I0J-249999D01*
G01*
X148528000Y-70632201D01*
G75*
G02*
X148278001Y-70882200I-249999J0D01*
G01*
X147377999Y-70882200D01*
G75*
G02*
X147128000Y-70632201I0J249999D01*
G01*
X147128000Y-69982199D01*
G75*
G02*
X147377999Y-69732200I249999J0D01*
G01*
G37*
%TD*%
M02*
